<svg xmlns="http://www.w3.org/2000/svg" viewBox="0 0 400 300" width="400" height="300">

<rect width="400" height="300" fill="#fff8f0"/><circle cx="60" cy="55" r="40" fill="#ffd3e1" opacity="0.45"/><circle cx="345" cy="250" r="46" fill="#b8e6d6" opacity="0.4"/><g transform="translate(200,150)"><ellipse cx="-22" cy="56" rx="13" ry="9" fill="#e9ddcb"/><ellipse cx="22" cy="56" rx="13" ry="9" fill="#e9ddcb"/><circle cx="-34" cy="-40" r="15" fill="#e9ddcb"/><circle cx="34" cy="-40" r="15" fill="#e9ddcb"/><ellipse cx="0" cy="6" rx="54" ry="50" fill="#efe6d6"/><ellipse cx="-50" cy="22" rx="13" ry="17" fill="#e9ddcb"/><ellipse cx="50" cy="22" rx="13" ry="17" fill="#e9ddcb"/><line x1="0" y1="-30" x2="0" y2="44" stroke="#cdbfa8" stroke-width="2" stroke-dasharray="5 5"/><path d="M-30 50 q5 6 10 0 q5 6 10 0 q5 6 10 0 q5 6 10 0" fill="none" stroke="#cdbfa8" stroke-width="2.5" stroke-linecap="round"/></g><text x="200" y="284" text-anchor="middle" font-family="'Hiragino Maru Gothic ProN',sans-serif" font-size="16" fill="#8a7680">ぬいのもと（素体）</text>
</svg>
